<?xml version="1.0" standalone="no"?><!DOCTYPE svg PUBLIC "-//W3C//DTD SVG 1.1//EN" "http://www.w3.org/Graphics/SVG/1.1/DTD/svg11.dtd"><svg t="1574153407740" class="icon" viewBox="0 0 1024 1024" version="1.1" xmlns="http://www.w3.org/2000/svg" p-id="2328" xmlns:xlink="http://www.w3.org/1999/xlink" width="200" height="200"><defs><style type="text/css"></style></defs><path d="M587.955 378.826C673.492 493.5 828.076 540.73 828.076 540.73c-11.552-198.515-130.132-295.517-317.862-296.47-224.581-1.148-355.034 180.604-305.846 359.499 0 0 380.46-143.073 383.587-224.934z m0 0" fill="#1996DB" p-id="2329"></path><path d="M863.816 734.555c69.926-17.969 121.81-16.85 121.81-159.994 0-68.948-41.218-128.016-99.663-152.74C842.906 258.77 708.85 92.996 507.538 88.46c-6.421-0.14-12.79-0.166-19.091 0-195.01 5.013-328.637 155.796-343.67 330.687-61.982 22.934-108.642 83.887-106.54 155.413 4.7 160.616 70.334 163.169 157.705 164.96V428.692c1.839-132.883 132.028-280.278 311.596-280.278 178.496 0 277.228 138.925 320.761 262.33v319.611c-8.782 20.574-32.292 43.699-75.228 85.155-56.012 54.055-136.703 82.095-136.703 82.095-9.379 1.983-15.991 14.508-13.365 25.202 2.625 10.692 14.053 17.114 22.908 12.982 0 0 85.133-27.781 148.928-89.356 63.148-60.972 88.758-111.283 88.977-111.878z m0 0" fill="#1996DB" p-id="2330"></path><path d="M327.224 631.706c0 21.94 17.792 39.733 39.732 39.733 21.945 0 39.732-17.793 39.732-39.733 0-21.945-17.787-39.737-39.732-39.737-21.94 0-39.732 17.792-39.732 39.737z m299.023 0c0 21.94 17.787 39.733 39.732 39.733s39.732-17.793 39.732-39.733c0-21.945-17.787-39.737-39.732-39.737s-39.732 17.792-39.732 39.737z m0 0" fill="#1996DB" p-id="2331"></path></svg>