<?xml version="1.0" standalone="no"?><!DOCTYPE svg PUBLIC "-//W3C//DTD SVG 1.1//EN" "http://www.w3.org/Graphics/SVG/1.1/DTD/svg11.dtd"><svg t="1571390742180" class="icon" viewBox="0 0 1024 1024" version="1.1" xmlns="http://www.w3.org/2000/svg" p-id="2340" xmlns:xlink="http://www.w3.org/1999/xlink" width="200" height="200"><defs><style type="text/css"></style></defs><path d="M512.5 65C265.7 65 65.7 265.1 65.7 511.9s200.1 446.8 446.8 446.8 446.8-200.1 446.8-446.8S759.3 65 512.5 65z m191.4 599.6c10.6 10.6 10.6 28.1 0 38.7-10.6 10.6-28.1 10.6-38.7 0L512.5 550.6 359.8 703.3c-10.6 10.6-28.1 10.6-38.7 0-10.6-10.6-10.6-28.1 0-38.7l152.7-152.7-152.7-152.7c-10.6-10.6-10.6-28.1 0-38.7 10.6-10.6 28.1-10.6 38.7 0l152.7 152.7 152.7-152.7c10.6-10.6 28.1-10.6 38.7 0 10.6 10.6 10.6 28.1 0 38.7L551.2 511.9l152.7 152.7z" opacity="1" p-id="2341"></path></svg>
