<?xml version="1.0" standalone="no"?><!DOCTYPE svg PUBLIC "-//W3C//DTD SVG 1.1//EN" "http://www.w3.org/Graphics/SVG/1.1/DTD/svg11.dtd"><svg t="1558061999332" class="icon" style="" viewBox="0 0 1024 1024" version="1.1" xmlns="http://www.w3.org/2000/svg" p-id="3593" xmlns:xlink="http://www.w3.org/1999/xlink" width="64" height="64"><defs><style type="text/css"></style></defs><path d="M980.99291 505.514667a11.719111 11.719111 0 0 1-0.887466 2.048c-29.240889 53.885156-192.512 207.621689-489.813334 461.164089C241.437355 744.425244 92.616021 590.734222 43.896377 507.562667a31.3344 31.3344 0 0 1-1.729422-3.345067A269.789867 269.789867 0 0 1 0.00091 358.8096C0.00091 210.898489 117.874688 91.022222 263.305444 91.022222c115.029333 0 212.832711 75.002311 248.695466 179.541334C547.863666 166.024533 645.667044 91.022222 760.696377 91.022222 906.104377 91.022222 1024.00091 210.921244 1024.00091 358.8096c0 54.158222-15.815111 104.561778-43.008 146.705067z" fill="currentColor" p-id="3594"></path></svg>
