<?xml version="1.0" standalone="no"?><!DOCTYPE svg PUBLIC "-//W3C//DTD SVG 1.1//EN" "http://www.w3.org/Graphics/SVG/1.1/DTD/svg11.dtd"><svg t="1558059083819" class="icon" style="" viewBox="0 0 1024 1024" version="1.1" xmlns="http://www.w3.org/2000/svg" p-id="3377" xmlns:xlink="http://www.w3.org/1999/xlink" width="64" height="64"><defs><style type="text/css"></style></defs><path d="M490.2912 945.993956l-14.836622-13.425778C236.635022 716.549689 91.454578 565.885156 43.872711 484.807111l-2.594133-4.846933C14.586311 438.158222 0 387.868444 0 336.054044 0 188.393244 118.124089 68.266667 263.304533 68.266667c111.911822 0 211.854222 72.157867 248.695467 179.564089C548.841244 140.424533 648.783644 68.266667 760.695467 68.266667 905.898667 68.266667 1024 188.393244 1024 336.054044c0 52.383289-14.859378 103.105422-43.030756 146.705067l-0.796444 1.6384 0.136533 0.068267-0.136533-0.045511-0.295822 0.6144 0.091022 0.045511-0.091022-0.045511-0.4096 0.910222c-29.946311 53.430044-189.417244 203.844267-473.998222 447.0784l-15.177956 12.970667zM263.304533 113.777778C143.200711 113.777778 45.511111 213.492622 45.511111 336.054044a224.824889 224.824889 0 0 0 35.043556 120.968534l2.571377 4.664889c44.282311 75.5712 181.521067 218.043733 408.029867 423.7312 347.090489-297.301333 429.920711-390.621867 447.556267-419.862756l4.027733-7.418311A224.688356 224.688356 0 0 0 978.488889 336.054044C978.488889 213.492622 880.776533 113.777778 760.695467 113.777778c-92.455822 0-175.104 59.8016-205.6192 148.798578L512 388.073244l-43.053511-125.496888C438.431289 173.579378 355.783111 113.777778 263.304533 113.777778z" fill="currentColor" p-id="3378"></path></svg>
