<svg t="1571621851645" viewBox="0 0 1024 1024" version="1.1" xmlns="http://www.w3.org/2000/svg" p-id="6036" xmlns:xlink="http://www.w3.org/1999/xlink" width="48" height="48"><path d="M503.621818 867.328c-9.122909 0-16.430545-1.815273-25.553454-3.630545l-5.492364-1.861819-193.629091-115.060363c-16.430545-3.630545-43.845818-9.122909-56.599273-9.122909h-3.677091l-140.660363-16.430546c-41.984 0-76.706909-36.538182-76.706909-78.568727V386.932364c0-42.030545 34.722909-76.753455 76.706909-78.568728l158.952727-21.876363a191.301818 191.301818 0 0 0 54.784-9.169455l180.829091-129.675636 3.677091-1.861818a76.101818 76.101818 0 0 1 71.214545 9.169454c20.107636 14.615273 32.907636 38.353455 32.907637 63.906909v568.087273c0 25.6-12.8 49.338182-32.907637 63.953455-10.938182 10.938182-27.368727 16.430545-43.845818 16.430545z m-5.445818-56.599273c7.307636 1.815273 12.753455 0 18.245818-3.677091a22.481455 22.481455 0 0 0 9.122909-18.245818V220.625455a29.323636 29.323636 0 0 0-9.122909-20.061091c-5.492364-3.677091-12.8-5.492364-18.245818-3.677091L319.162182 326.656l-3.677091 1.815273c-23.738182 9.122909-49.338182 12.8-74.891636 12.8l-158.906182 21.876363a24.203636 24.203636 0 0 0-23.738182 23.738182v253.952c0 12.8 10.938182 23.738182 23.738182 23.738182h3.630545l140.660364 16.430545c25.6 0 67.584 10.984727 71.214545 12.8l3.723637 1.861819 197.259636 115.060363z" fill="#54503E" p-id="6037"></path><path d="M682.682182 674.909091a23.272727 23.272727 0 1 1 0-46.545455c56.971636 0 104.727273-55.714909 104.727273-126.045091 0-70.376727-47.755636-126.091636-104.727273-126.091636a23.272727 23.272727 0 1 1 0-46.545454c84.386909 0 151.272727 78.010182 151.272727 172.63709 0 94.580364-66.885818 172.590545-151.272727 172.590546z" fill="#FFBB12" p-id="6038"></path><path d="M817.617455 803.607273a23.272727 23.272727 0 1 1-13.870546-44.404364c90.996364-28.392727 160.023273-125.952 160.023273-255.115636 0-130.932364-73.262545-236.218182-158.021818-254.603637a23.272727 23.272727 0 1 1 9.867636-45.474909c107.613091 23.319273 194.699636 148.48 194.699636 300.078546 0 149.178182-81.92 264.983273-192.698181 299.52z" fill="#FFBB12" p-id="6039"></path></svg>
