<?xml version="1.0" standalone="no"?><!DOCTYPE svg PUBLIC "-//W3C//DTD SVG 1.1//EN" "http://www.w3.org/Graphics/SVG/1.1/DTD/svg11.dtd"><svg t="1574231941299" class="icon" viewBox="0 0 1024 1024" version="1.1" xmlns="http://www.w3.org/2000/svg" p-id="2358" xmlns:xlink="http://www.w3.org/1999/xlink" width="200" height="200"><defs><style type="text/css"></style></defs><path d="M800 384c-17.92 0-32 14.08-32 32v416c0 35.2-28.8 64-64 64h-64V416c0-17.92-14.08-32-32-32s-32 14.08-32 32v480H448V416c0-17.92-14.08-32-32-32s-32 14.08-32 32v480h-64c-35.2 0-64-28.8-64-64V416c0-17.92-14.08-32-32-32s-32 14.08-32 32v416c0 70.4 57.6 128 128 128h384c70.4 0 128-57.6 128-128V416c0-17.92-14.08-32-32-32z m64-128H160c-17.92 0-32 14.08-32 32s14.08 32 32 32h704c17.92 0 32-14.08 32-32s-14.08-32-32-32z m-512-64h320c17.92 0 32-14.08 32-32s-14.08-32-32-32H352c-17.92 0-32 14.08-32 32s14.08 32 32 32z" p-id="2359"></path></svg>